HIERARCHY
ROOT Hips
{
    OFFSET 0.000000 0.000000 0.000000
    CHANNELS 6 Xposition Yposition Zposition Zrotation Xrotation Yrotation
    JOINT Spine
    {
        OFFSET -0.000000 7.305679 0.000000
        CHANNELS 3 Zrotation Xrotation Yrotation
        JOINT Spine1
        {
            OFFSET -0.000000 20.356625 0.000000
            CHANNELS 3 Zrotation Xrotation Yrotation
            JOINT Neck
            {
                OFFSET -0.000000 22.138498 0.000000
                CHANNELS 3 Zrotation Xrotation Yrotation
                JOINT Head
                {
                    OFFSET -0.000000 13.809516 1.781873
                    CHANNELS 3 Zrotation Xrotation Yrotation
                    End Site
                    {
                        OFFSET -0.000000 17.818729 0.000000
                    }
                }
            }
            JOINT LeftShoulder
            {
                OFFSET 3.599131 17.989975 0.023592
                CHANNELS 3 Zrotation Xrotation Yrotation
                JOINT LeftArm
                {
                    OFFSET 12.560995 0.000000 0.000000
                    CHANNELS 3 Zrotation Xrotation Yrotation
                    JOINT LeftForeArm
                    {
                        OFFSET 22.903347 0.000000 0.000000
                        CHANNELS 3 Zrotation Xrotation Yrotation
                        JOINT LeftHand
                        {
                            OFFSET 21.865294 0.000000 0.000000
                            CHANNELS 3 Zrotation Xrotation Yrotation
                            JOINT LeftHandThumb1
                            {
                                OFFSET 1.853706 -2.106484 2.949078
                                CHANNELS 3 Zrotation Xrotation Yrotation
                                JOINT LeftHandThumb2
                                {
                                    OFFSET 2.049154 0.000000 1.336405
                                    CHANNELS 3 Zrotation Xrotation Yrotation
                                    JOINT LeftHandThumb3
                                    {
                                        OFFSET 2.672809 0.000000 0.000000
                                        CHANNELS 3 Zrotation Xrotation Yrotation
                                        End Site
                                        {
                                            OFFSET 2.381303 0.000000 0.000000
                                        }
                                    }
                                }
                            }
                            JOINT LeftHandIndex1
                            {
                                OFFSET 7.583345 0.000000 2.949078
                                CHANNELS 3 Zrotation Xrotation Yrotation
                                JOINT LeftHandIndex2
                                {
                                    OFFSET 4.454682 0.000000 0.000000
                                    CHANNELS 3 Zrotation Xrotation Yrotation
                                    JOINT LeftHandIndex3
                                    {
                                        OFFSET 2.227341 0.000000 0.000000
                                        CHANNELS 3 Zrotation Xrotation Yrotation
                                        End Site
                                        {
                                            OFFSET 1.984419 0.000000 0.000000
                                        }
                                    }
                                }
                            }
                            JOINT LeftHandMiddle1
                            {
                                OFFSET 7.583345 0.000000 0.977409
                                CHANNELS 3 Zrotation Xrotation Yrotation
                                JOINT LeftHandMiddle2
                                {
                                    OFFSET 4.900151 0.000000 0.000000
                                    CHANNELS 3 Zrotation Xrotation Yrotation
                                    JOINT LeftHandMiddle3
                                    {
                                        OFFSET 2.672809 0.000000 0.000000
                                        CHANNELS 3 Zrotation Xrotation Yrotation
                                        End Site
                                        {
                                            OFFSET 2.381303 0.000000 0.000000
                                        }
                                    }
                                }
                            }
                            JOINT LeftHandRing1
                            {
                                OFFSET 7.162047 0.000000 -0.977409
                                CHANNELS 3 Zrotation Xrotation Yrotation
                                JOINT LeftHandRing2
                                {
                                    OFFSET 4.454682 0.000000 0.000000
                                    CHANNELS 3 Zrotation Xrotation Yrotation
                                    JOINT LeftHandRing3
                                    {
                                        OFFSET 2.227341 0.000000 0.000000
                                        CHANNELS 3 Zrotation Xrotation Yrotation
                                        End Site
                                        {
                                            OFFSET 1.984419 0.000000 0.000000
                                        }
                                    }
                                }
                            }
                            JOINT LeftHandPinky1
                            {
                                OFFSET 6.740750 0.000000 -2.949078
                                CHANNELS 3 Zrotation Xrotation Yrotation
                                JOINT LeftHandPinky2
                                {
                                    OFFSET 3.563746 0.000000 0.000000
                                    CHANNELS 3 Zrotation Xrotation Yrotation
                                    JOINT LeftHandPinky3
                                    {
                                        OFFSET 1.781873 0.000000 0.000000
                                        CHANNELS 3 Zrotation Xrotation Yrotation
                                        End Site
                                        {
                                            OFFSET 1.587536 0.000000 0.000000
                                        }
                                    }
                                }
                            }
                        }
                    }
                }
            }
            JOINT RightShoulder
            {
                OFFSET -3.506995 17.989975 0.023592
                CHANNELS 3 Zrotation Xrotation Yrotation
                JOINT RightArm
                {
                    OFFSET -12.560995 0.000000 0.000000
                    CHANNELS 3 Zrotation Xrotation Yrotation
                    JOINT RightForeArm
                    {
                        OFFSET -22.903347 0.000000 0.000000
                        CHANNELS 3 Zrotation Xrotation Yrotation
                        JOINT RightHand
                        {
                            OFFSET -21.865294 0.000000 0.000000
                            CHANNELS 3 Zrotation Xrotation Yrotation
                            JOINT RightHandThumb1
                            {
                                OFFSET -1.853706 -2.106484 2.949078
                                CHANNELS 3 Zrotation Xrotation Yrotation
                                JOINT RightHandThumb2
                                {
                                    OFFSET -2.049154 0.000000 1.336405
                                    CHANNELS 3 Zrotation Xrotation Yrotation
                                    JOINT RightHandThumb3
                                    {
                                        OFFSET -2.672809 0.000000 0.000000
                                        CHANNELS 3 Zrotation Xrotation Yrotation
                                        End Site
                                        {
                                            OFFSET -2.381303 0.000000 0.000000
                                        }
                                    }
                                }
                            }
                            JOINT RightHandIndex1
                            {
                                OFFSET -7.583345 0.000000 2.949078
                                CHANNELS 3 Zrotation Xrotation Yrotation
                                JOINT RightHandIndex2
                                {
                                    OFFSET -4.454682 0.000000 0.000000
                                    CHANNELS 3 Zrotation Xrotation Yrotation
                                    JOINT RightHandIndex3
                                    {
                                        OFFSET -2.227341 0.000000 0.000000
                                        CHANNELS 3 Zrotation Xrotation Yrotation
                                        End Site
                                        {
                                            OFFSET -1.984419 0.000000 0.000000
                                        }
                                    }
                                }
                            }
                            JOINT RightHandMiddle1
                            {
                                OFFSET -7.583345 0.000000 0.977409
                                CHANNELS 3 Zrotation Xrotation Yrotation
                                JOINT RightHandMiddle2
                                {
                                    OFFSET -4.900151 0.000000 0.000000
                                    CHANNELS 3 Zrotation Xrotation Yrotation
                                    JOINT RightHandMiddle3
                                    {
                                        OFFSET -2.672809 0.000000 0.000000
                                        CHANNELS 3 Zrotation Xrotation Yrotation
                                        End Site
                                        {
                                            OFFSET -2.381303 0.000000 0.000000
                                        }
                                    }
                                }
                            }
                            JOINT RightHandRing1
                            {
                                OFFSET -7.162047 0.000000 -0.977409
                                CHANNELS 3 Zrotation Xrotation Yrotation
                                JOINT RightHandRing2
                                {
                                    OFFSET -4.454682 0.000000 0.000000
                                    CHANNELS 3 Zrotation Xrotation Yrotation
                                    JOINT RightHandRing3
                                    {
                                        OFFSET -2.227341 0.000000 0.000000
                                        CHANNELS 3 Zrotation Xrotation Yrotation
                                        End Site
                                        {
                                            OFFSET -1.984419 0.000000 0.000000
                                        }
                                    }
                                }
                            }
                            JOINT RightHandPinky1
                            {
                                OFFSET -6.740750 0.000000 -2.949078
                                CHANNELS 3 Zrotation Xrotation Yrotation
                                JOINT RightHandPinky2
                                {
                                    OFFSET -3.563746 0.000000 0.000000
                                    CHANNELS 3 Zrotation Xrotation Yrotation
                                    JOINT RightHandPinky3
                                    {
                                        OFFSET -1.781873 0.000000 0.000000
                                        CHANNELS 3 Zrotation Xrotation Yrotation
                                        End Site
                                        {
                                            OFFSET -1.587536 0.000000 0.000000
                                        }
                                    }
                                }
                            }
                        }
                    }
                }
            }
        }
    }
    JOINT LeftUpLeg
    {
        OFFSET 8.909365 0.000000 0.000000
        CHANNELS 3 Zrotation Xrotation Yrotation
        JOINT LeftLeg
        {
            OFFSET -0.000000 -38.765560 0.000000
            CHANNELS 3 Zrotation Xrotation Yrotation
            JOINT LeftFoot
            {
                OFFSET -0.000000 -35.244961 0.000000
                CHANNELS 3 Zrotation Xrotation Yrotation
                JOINT LeftToeBase
                {
                    OFFSET -0.000000 -5.791087 13.364048
                    CHANNELS 3 Zrotation Xrotation Yrotation
                    End Site
                    {
                        OFFSET -0.000000 0.000000 3.563746
                    }
                }
            }
        }
    }
    JOINT RightUpLeg
    {
        OFFSET -8.909365 0.000000 0.000000
        CHANNELS 3 Zrotation Xrotation Yrotation
        JOINT RightLeg
        {
            OFFSET -0.000000 -38.765560 0.000000
            CHANNELS 3 Zrotation Xrotation Yrotation
            JOINT RightFoot
            {
                OFFSET -0.000000 -35.244961 0.000000
                CHANNELS 3 Zrotation Xrotation Yrotation
                JOINT RightToeBase
                {
                    OFFSET -0.000000 -5.791087 13.364048
                    CHANNELS 3 Zrotation Xrotation Yrotation
                    End Site
                    {
                        OFFSET -0.000000 0.000000 3.563746
                    }
                }
            }
        }
    }
}
MOTION
Frames:    4
Frame Time:    0.008333
-8.214633    81.061264    127.023506    0.174045    -3.067444    -1.626340    0.305467    0.634147    -0.911167    -1.902184    3.868822    -0.239003    2.168366    -1.253961    -1.132008    0.758053    1.059574    -1.009365    2.213933    4.284024    -10.707772    -89.078064    28.716520    -1.819361    9.103373    -11.596539    1.970104    1.698439    -36.187904    9.848300    0.697102    1.799978    3.015027    -0.000000    0.000000    2.951447    -0.000000    0.000000    5.902895    -6.418973    1.022127    -9.009818    -12.999012    0.000000    0.000000    -6.499507    0.000000    0.000000    -16.979197    -0.952791    -1.800038    -33.960300    0.000000    0.000000    -16.980154    0.000000    0.000000    -27.231627    -4.198760    4.941166    -54.921600    0.000000    0.000000    -27.460800    0.000000    0.000000    -37.401085    -8.720641    11.216185    -76.518074    0.000000    0.000000    -38.259037    0.000000    0.000000    -4.463314    -2.978297    1.862513    98.534897    55.394955    -10.828246    -10.081051    -32.824009    0.769218    14.437088    -43.580975    -1.178038    -0.538585    -0.365204    0.224548    0.000000    0.000000    0.000000    0.000000    0.000000    0.000000    12.037989    0.067037    0.314357    24.076345    0.000000    -0.000000    12.038173    0.000000    -0.000000    17.249187    -0.863558    -1.999775    34.540749    0.000000    -0.000000    17.270374    0.000000    -0.000000    22.420977    -1.999743    -4.220847    45.005146    0.000000    -0.000000    22.502577    0.000000    -0.000000    27.704794    -3.373924    -6.394674    55.786655    0.000000    -0.000000    27.893328    0.000000    -0.000000    -1.325555    2.951887    2.072785    1.779968    5.487068    -3.049786    -1.012596    -5.154060    4.590482    0.028927    0.503882    -0.011051    -1.001081    3.434451    -3.982867    -0.440835    5.878303    -1.344020    1.360894    -5.888673    2.827146    -0.204200    0.244881    0.344982    
-8.227133    81.061592    127.028976    0.170684    -3.071132    -1.611872    0.298233    0.644453    -0.921117    -1.899964    3.869761    -0.242341    2.178933    -1.222547    -1.155375    0.781627    1.021025    -1.034631    2.219218    4.277998    -10.726873    -89.068001    28.750605    -1.811591    9.097507    -11.573553    1.946767    1.685872    -36.152264    9.845981    0.717133    1.797421    3.035948    -0.000000    0.000000    2.968895    -0.000000    0.000000    5.937790    -6.169700    0.989493    -9.076373    -12.496480    0.000000    0.000000    -6.248240    0.000000    0.000000    -16.796612    -0.965376    -1.829528    -33.594189    0.000000    0.000000    -16.797094    0.000000    0.000000    -27.115732    -4.206238    4.948073    -54.691898    0.000000    0.000000    -27.345949    0.000000    0.000000    -37.351841    -8.736889    11.255919    -76.428932    0.000000    0.000000    -38.214466    0.000000    0.000000    -4.464652    -2.978550    1.864194    98.532936    55.427258    -10.826153    -10.079059    -32.841290    0.789823    14.408856    -43.557617    -1.195535    -0.545235    -0.368529    0.225429    0.000000    0.000000    0.000000    0.000000    0.000000    0.000000    12.030082    0.063073    0.295966    24.060488    0.000000    -0.000000    12.030244    0.000000    -0.000000    17.249424    -0.867439    -2.012655    34.541580    0.000000    -0.000000    17.270792    0.000000    -0.000000    22.429466    -2.003359    -4.228086    45.022682    0.000000    -0.000000    22.511341    0.000000    -0.000000    27.721947    -3.377058    -6.395945    55.821377    0.000000    -0.000000    27.910686    0.000000    -0.000000    -1.312635    2.955557    2.056604    1.780065    5.494435    -3.072145    -1.001315    -5.159109    4.616929    0.031194    0.510691    -0.015814    -0.982096    3.408194    -3.979856    -0.456897    5.951566    -1.332342    1.366500    -5.929846    2.802463    -0.202064    0.242083    0.341357    
-8.239635    81.062004    127.034721    0.165856    -3.076194    -1.597327    0.292641    0.656612    -0.931528    -1.897778    3.870178    -0.245817    2.191081    -1.193907    -1.178062    0.801254    0.985267    -1.058556    2.224897    4.271619    -10.745282    -89.059532    28.780487    -1.803737    9.093109    -11.549694    1.924407    1.670874    -36.117485    9.844691    0.734013    1.795381    3.053716    -0.000000    0.000000    2.983777    -0.000000    0.000000    5.967553    -5.942935    0.960354    -9.146609    -12.039510    0.000000    0.000000    -6.019755    0.000000    0.000000    -16.630005    -0.976245    -1.861750    -33.259949    0.000000    0.000000    -16.629972    0.000000    0.000000    -27.009083    -4.213224    4.953246    -54.480381    0.000000    0.000000    -27.240192    0.000000    0.000000    -37.304638    -8.753384    11.295253    -76.343864    0.000000    0.000000    -38.171932    0.000000    0.000000    -4.465990    -2.979537    1.866046    98.533607    55.458149    -10.826447    -10.079606    -32.858459    0.809924    14.382051    -43.533241    -1.214297    -0.551245    -0.372341    0.227485    0.000000    0.000000    0.000000    0.000000    0.000000    0.000000    12.024414    0.059007    0.277026    24.049114    0.000000    -0.000000    12.024556    0.000000    -0.000000    17.251137    -0.871355    -2.025696    34.545383    0.000000    -0.000000    17.272694    0.000000    -0.000000    22.438688    -2.006878    -4.235117    45.041660    0.000000    -0.000000    22.520824    0.000000    -0.000000    27.739079    -3.379895    -6.396661    55.855988    0.000000    -0.000000    27.927994    0.000000    -0.000000    -1.298216    2.961740    2.041521    1.780244    5.500138    -3.092677    -0.993415    -5.163733    4.639565    0.032799    0.516560    -0.019055    -0.962264    3.383902    -3.975054    -0.471276    6.024157    -1.318526    1.367840    -5.971154    2.773105    -0.200227    0.240625    0.338332    
-8.251742    81.062408    127.040253    0.161003    -3.079416    -1.582999    0.287204    0.668071    -0.942370    -1.894796    3.869058    -0.249529    2.204878    -1.168593    -1.199488    0.814762    0.952423    -1.080098    2.230198    4.265120    -10.762774    -89.053207    28.803577    -1.795827    9.091154    -11.525118    1.903939    1.651086    -36.083828    9.844071    0.745856    1.794301    3.066601    -0.000000    0.000000    2.994679    -0.000000    0.000000    5.989359    -5.752159    0.937049    -9.221457    -11.655461    0.000000    0.000000    -5.827731    0.000000    0.000000    -16.489279    -0.984132    -1.897985    -32.977329    0.000000    0.000000    -16.488672    0.000000    0.000000    -26.917850    -4.218995    4.955058    -54.299202    0.000000    0.000000    -27.149605    0.000000    0.000000    -37.261829    -8.769464    11.332411    -76.267189    0.000000    0.000000    -38.133598    0.000000    0.000000    -4.467281    -2.981027    1.868513    98.536774    55.485920    -10.829064    -10.084453    -32.874989    0.828438    14.358619    -43.506832    -1.234208    -0.556648    -0.377339    0.231767    0.000000    0.000000    0.000000    0.000000    0.000000    0.000000    12.021284    0.054970    0.258142    24.042820    0.000000    -0.000000    12.021409    0.000000    -0.000000    17.254074    -0.875286    -2.038789    34.551632    0.000000    -0.000000    17.275814    0.000000    -0.000000    22.447813    -2.010414    -4.242332    45.060448    0.000000    -0.000000    22.530224    0.000000    -0.000000    27.754742    -3.382710    -6.397727    55.887703    0.000000    -0.000000    27.943851    0.000000    -0.000000    -1.284188    2.967054    2.028602    1.781063    5.503567    -3.109008    -0.990351    -5.167095    4.654871    0.033353    0.520935    -0.019897    -0.943844    3.357370    -3.968047    -0.482689    6.097408    -1.301064    1.363358    -6.012940    2.737252    -0.198837    0.240309    0.336120    
